<?xml version="1.0" encoding="UTF-8"?>
<svg width="17px" height="17px" viewBox="0 0 17 17" version="1.1" xmlns="http://www.w3.org/2000/svg">
    <g id="web" stroke="none" stroke-width="1" fill="none" fill-rule="evenodd">
        <g id="Event-inside" transform="translate(-528.000000, -1569.000000)">
            <g id="bus-front-12" transform="translate(529.000000, 1570.000000)">
                <path d="M0.25,6.25 L0.25,7.75" id="Shape" stroke="#FFFFFF" stroke-linecap="round" stroke-linejoin="round"></path>
                <path d="M15.25,6.25 L15.25,7.75" id="Shape" stroke="#FFFFFF" stroke-linecap="round" stroke-linejoin="round"></path>
                <circle id="Oval" fill="#FFFFFF" fill-rule="nonzero" cx="4" cy="11" r="1"></circle>
                <circle id="Oval" fill="#FFFFFF" fill-rule="nonzero" cx="11.5" cy="11" r="1"></circle>
                <path d="M13.75,8.75 L1.75,8.75" id="Shape" stroke="#FFFFFF" stroke-linecap="round" stroke-linejoin="round"></path>
                <path d="M1.75,2.75 L13.75,2.75" id="Shape" stroke="#FFFFFF" stroke-linecap="round" stroke-linejoin="round"></path>
                <polyline id="Shape" stroke="#FFFFFF" stroke-linecap="round" stroke-linejoin="round" points="5.25 13.25 5.25 15.25 2.75 15.25 2.75 13.25"></polyline>
                <polyline id="Shape" stroke="#FFFFFF" stroke-linecap="round" stroke-linejoin="round" points="12.75 13.25 12.75 15.25 10.25 15.25 10.25 13.25"></polyline>
                <path d="M13.75,13.25 L1.75,13.25 L1.75,1.75 C1.75,0.9215 2.4215,0.25 3.25,0.25 L12.25,0.25 C13.0785,0.25 13.75,0.9215 13.75,1.75 L13.75,13.25 Z" id="Shape" stroke="#FFFFFF" stroke-linecap="round" stroke-linejoin="round"></path>
            </g>
        </g>
    </g>
</svg>
