<?xml version="1.0" encoding="UTF-8"?>
<svg width="17px" height="15px" viewBox="0 0 17 15" version="1.1" xmlns="http://www.w3.org/2000/svg">
    <!-- Generator: Sketch 52.1 (67048) - http://www.bohemiancoding.com/sketch -->
    <title>coupon copy@2x</title>
    <desc>Created with Sketch.</desc>
    <g id="web" stroke="none" stroke-width="1" fill="none" fill-rule="evenodd" stroke-linecap="round" stroke-linejoin="round">
        <g id="Event-inside" transform="translate(-529.000000, -1345.000000)" stroke="#FFFFFF">
            <g id="coupon-copy" transform="translate(530.000000, 1346.000000)">
                <path d="M5,4 L10,4" id="Shape"></path>
                <path d="M5,9 L10,9" id="Shape"></path>
                <path d="M13,7 C13,5.895 13.895,5 15,5 L15,1 C15,0.448 14.552,0 14,0 L1,0 C0.448,0 0,0.448 0,1 L0,4.5 C1.105,4.5 2,5.395 2,6.5 C2,7.605 1.105,8.5 0,8.5 L0,12 C0,12.552 0.448,13 1,13 L14,13 C14.552,13 15,12.552 15,12 L15,9 C13.895,9 13,8.105 13,7 Z" id="Shape"></path>
            </g>
        </g>
    </g>
</svg>
