<svg width="46px" height="44px" viewBox="0 0 46 44" version="1.1" xmlns="http://www.w3.org/2000/svg">
    <g id="web" stroke="none" stroke-width="0" >
        <g id="Icon" transform="translate(-311.000000, -416.000000)" stroke="none" stroke-width="0" >
            <g id="logo-instagram-copy" transform="translate(311.000000, 416.000000)">
                <path d="M23,3.96366667 C29.141,3.96366667 29.8693333,3.98566667 32.2939167,4.092 C34.9120833,4.20566667 37.3405,4.708 39.20925,6.4955 C41.078,8.283 41.6031667,10.6058333 41.722,13.1101667 C41.8331667,15.4293333 41.8561667,16.126 41.8561667,22 C41.8561667,27.874 41.8331667,28.5706667 41.722,30.8898333 C41.6031667,33.3941667 41.078,35.717 39.20925,37.5045 C37.3405,39.292 34.9120833,39.7943333 32.2939167,39.908 C29.8693333,40.0143333 29.141,40.0363333 23,40.0363333 C16.859,40.0363333 16.1306667,40.0143333 13.7060833,39.908 C11.0879167,39.7943333 8.6595,39.292 6.79075,37.5045 C4.922,35.717 4.39683333,33.3941667 4.278,30.8898333 C4.16683333,28.5706667 4.14383333,27.874 4.14383333,22 C4.14383333,16.126 4.16683333,15.4293333 4.278,13.1101667 C4.39683333,10.6058333 4.922,8.283 6.79075,6.4955 C8.6595,4.708 11.0879167,4.20566667 13.7060833,4.092 C16.1306667,3.98566667 16.859,3.96366667 23,3.96366667 Z M23,0 C16.7535833,0 15.9696667,0.0256666667 13.5163333,0.132 C9.77883333,0.295166667 6.49558333,1.1715 3.86016667,3.69233333 C1.22475,6.21316667 0.308583333,9.35366667 0.138,12.9286667 C0.0268333333,15.2753333 0,16.0251667 0,22 C0,27.9748333 0.0268333333,28.7246667 0.138,31.0713333 C0.308583333,34.6463333 1.22475,37.7868333 3.86016667,40.3076667 C6.49558333,42.8285 9.77883333,43.7048333 13.5163333,43.868 C15.9696667,43.9743333 16.7535833,44 23,44 C29.2464167,44 30.0303333,43.9743333 32.4836667,43.868 C36.2211667,43.7048333 39.5044167,42.8285 42.1398333,40.3076667 C44.77525,37.7868333 45.6914167,34.6463333 45.862,31.0713333 C45.9731667,28.7246667 46,27.9748333 46,22 C46,16.0251667 45.9731667,15.2753333 45.862,12.9286667 C45.6914167,9.35366667 44.77525,6.21316667 42.1398333,3.69233333 C39.5044167,1.1715 36.2211667,0.295166667 32.4836667,0.132 C30.0303333,0.0256666667 29.2464167,0 23,0 Z" id="Shape"></path>
                <path d="M23,10.703 C16.4775833,10.703 11.1895,15.7611667 11.1895,22 C11.1895,28.2388333 16.4775833,33.297 23,33.297 C29.5224167,33.297 34.8105,28.2388333 34.8105,22 C34.8105,15.7611667 29.5224167,10.703 23,10.703 Z M23,29.3333333 C18.7660833,29.3333333 15.3333333,26.0498333 15.3333333,22 C15.3333333,17.9501667 18.7660833,14.6666667 23,14.6666667 C27.2339167,14.6666667 30.6666667,17.9501667 30.6666667,22 C30.6666667,26.0498333 27.2339167,29.3333333 23,29.3333333 Z" id="Shape"></path>
                <ellipse id="Oval" cx="35.2781667" cy="10.2556667" rx="2.76" ry="2.64"></ellipse>
            </g>
        </g>
    </g>
</svg>
