<svg width="58px" height="48px" viewBox="0 0 58 48" version="1.1" xmlns="http://www.w3.org/2000/svg">
    <g id="web" stroke="none" stroke-width="1" fill="none" fill-rule="evenodd" stroke-linecap="round" stroke-linejoin="round">
        <g id="Icon" transform="translate(-78.000000, -414.000000)" fill-rule="nonzero" stroke="#2CC3F0" stroke-width="3.75">
            <g id="logo-twitter-copy" transform="translate(80.000000, 416.000000)">
                <path d="M54,5.72 C51.975,6.6 49.95,7.26 47.7,7.48 C49.95,6.16 51.75,3.96 52.65,1.54 C50.4,2.86 48.15,3.74 45.675,4.18 C43.65,1.98 40.725,0.66 37.575,0.66 C31.5,0.66 26.55,5.5 26.55,11.44 C26.55,12.32 26.55,13.2 26.775,13.86 C17.325,13.42 9.225,9.02 3.825,2.42 C2.7,4.18 2.25,5.94 2.25,7.92 C2.25,11.66 4.275,14.96 7.2,16.94 C5.4,16.94 3.6,16.5 2.25,15.62 C2.25,15.62 2.25,15.62 2.25,15.84 C2.25,21.12 6.075,25.52 11.025,26.4 C10.125,26.62 9.225,26.84 8.1,26.84 C7.425,26.84 6.75,26.84 6.075,26.62 C7.425,31.02 11.475,34.1 16.425,34.1 C12.6,36.96 7.875,38.72 2.7,38.72 C1.8,38.72 0.9,38.72 1.77635684e-15,38.5 C4.95,41.58 10.8,43.34 16.875,43.34 C37.35,43.34 48.375,26.84 48.375,12.54 C48.375,12.1 48.375,11.66 48.375,11.22 C50.625,9.68 52.425,7.7 54,5.72 Z" id="Shape"></path>
            </g>
        </g>
    </g>
</svg>
