<svg xmlns="http://www.w3.org/2000/svg" width="19" height="18" viewBox="0 0 19 18">
    <g fill="none" fill-rule="evenodd" stroke="#7D7D7D" stroke-linecap="round" stroke-linejoin="round" transform="translate(.75 1)">
        <path d="M3.403 1.778c.601.348 1.27.632 1.713 1.212.387.507 1.055 2.082.267 2.878-.89.902-3.466 1.206-3.466 2.036 0 .625 1.13 1.338 1.733 2.036.908 1.049.494 2.065 0 2.715-.257.336-.693.605-1.147.819M15.333 2.98c-1.712.737-3.14 1.65-4.09 1.432-1.078-.247-.985-1.092-1.62-1.957-.475-.65-1.956-1.093-1.956-1.767 0-.264.03-.479.105-.688M15.333 9.395c.034 2.347-3.477 5.65-4.917 4.64-1.23-.862-.143-1.386-.805-4.64-.253-1.24 1.28-2.284 2.861-2.284 1.58 0 2.843 1.023 2.861 2.284z"/>
        <ellipse cx="8.625" cy="8" rx="8.625" ry="8"/>
    </g>
</svg>
