<svg width="50px" height="48px" viewBox="0 0 50 48" version="1.1" xmlns="http://www.w3.org/2000/svg">
    <g id="web" stroke="none" stroke-width="1" fill="none" fill-rule="evenodd">
        <g id="Icon" transform="translate(-201.000000, -414.000000)" stroke="#2CC3F0" stroke-width="3.75">
            <g id="world-Site" transform="translate(203.000000, 416.000000)">
                <path d="M9.14811064,3.82608696 C10.5677265,4.84979138 11.656985,7.45195622 11.656985,7.45195622 C11.656985,7.45195622 12.8832958,8.28309246 13.2668376,9.34271633 C13.6503793,10.4023402 13.2883159,11.8431094 13.2883159,11.8431094 C13.2883159,11.8431094 14.3745061,14.9551309 13.8631171,15.8281732 C13.3517282,16.7012155 11.1783249,17.2629558 11.1783249,17.2629558 C11.1783249,17.2629558 10.2833942,18.88432 8.42909771,19.1966197 C7.21506025,19.3203423 6,20.1305255 6,21.8147487 C6,23.498972 7.72644924,26.2428191 7.72644924,26.2428191 C7.72644924,26.2428191 9.51631071,27.0969039 9.77200521,27.7205055 C10.0276997,28.3441072 10.1146358,29.7968495 10.1146358,29.7968495 C10.1146358,29.7968495 11.8175612,32.728276 10.8581954,34.4115015 C10.5523848,34.9482978 9.13174619,35.3474028 9.13174619,35.3474028 L7.14039745,38.2608696" id="Shape"></path>
                <path d="M42,8.62550052 C39.6751739,9.66846994 35.6091922,10.5382941 35.6091922,10.5382941 C35.6091922,10.5382941 32.6382769,13.6323684 30.6868684,13.3762365 C28.73546,13.1201045 26.7511996,11.0710487 26.7511996,11.0710487 C26.7511996,11.0710487 26.8880829,7.29463876 26.2726556,7.10202751 C25.6572282,6.90941626 24.0146285,7.93394418 22.9874562,7.16554824 C21.9602839,6.39715231 22.5527148,4.23130029 22.5527148,4.23130029 C22.5527148,4.23130029 20.3176842,3.57970054 20.0439176,2.87482533 C19.7701509,2.16995013 20.8575519,0.601397886 21.0645195,0" id="Shape"></path>
                <path d="M39.8971585,23.1154868 C40.4012754,24.3413402 38.9504269,27.4699493 37.7546616,28.0808122 C36.1707263,28.8897929 35.0909079,29.9051463 34.6493015,30.6150681 C34.2076951,31.3249899 33.6279606,34.2513538 32.1791286,34.8322927 C30.7302966,35.4121998 27.2942358,38.7224167 25.4673161,38.2064852 C23.6403964,37.6905536 23.6393882,33.2401279 24.8996805,31.2403772 C25.6518229,30.0465115 24.7736512,27.4348659 24.7101325,26.5330175 C24.6466138,25.6311692 22.0010082,23.9533597 22,23.0504795 C22,21.6316677 25.0247015,17.8911638 25.0247015,17.8911638 C25.0247015,17.8911638 27.5029402,17.0532909 28.2591155,17.2462493 C29.0152909,17.4392077 30.4439582,18.342088 30.4439582,18.342088 C30.4439582,18.342088 33.2791117,18.6000538 34.3508643,19.1799608 L35.8007045,20.5337653 C35.8007045,20.535829 39.3930416,21.8896334 39.8971585,23.1154868 Z" id="Shape"></path>
                <ellipse id="Oval" stroke-linecap="square" cx="23" cy="22" rx="23" ry="22"></ellipse>
            </g>
        </g>
    </g>
</svg>
